<svg xmlns="http://www.w3.org/2000/svg" xmlns:xlink="http://www.w3.org/1999/xlink" xmlns:s="https://github.com/nturley/netlistsvg" width="587" height="797">
  <style>  svg {
      stroke: #011e41;
      fill: none;
    }
    text {
      fill:#ffffff;
      stroke:none;
      font-size:10px;
      font-weight: bold;
      font-family: "Courier New", monospace;
    }
    .fill-1 { fill: #003262; }
    .fill-2 { fill: #011e41; stroke: #003262; }
    .fill-3 { fill: #ffffff; }
    .fill-4 { fill: #003262; }
    .fill-5 { fill: #011e41; stroke: #fdda64; }
    .text-1 { fill: #fdb515; }
    .text-2 { fill: #003262; }
    .text-3 { stroke: #fdda64; }
    .nodelabel { text-anchor: middle; }
    .inputPortLabel { text-anchor: end; }
    .splitjoinBody { fill: #3c3c43; }</style>
  <g s:type="generic" transform="translate(264,22)" s:width="30" s:height="40" id="cell_gen_tristate:1 buffer_instance">
    <text x="15" y="-4" class="nodelabel text-1 cell_gen_tristate:1 buffer_instance" s:attribute="ref">generic_tristate_buffer_1bit</text>
    <rect width="30" height="40" s:generic="body" class="cell_gen_tristate:1 buffer_instance fill-1"/>
    <g transform="translate(0,10)" s:x="0" s:y="10" s:pid="in0" id="port_gen_tristate:1 buffer_instance~data_in">
      <text x="-3" y="-4" class="inputPortLabel text-2 cell_gen_tristate:1 buffer_instance">data_in</text>
    </g>
    <g transform="translate(0,30)" s:x="0" s:y="10" s:pid="in0" id="port_gen_tristate:1 buffer_instance~enable">
      <text x="-3" y="-4" class="inputPortLabel text-2 cell_gen_tristate:1 buffer_instance">enable</text>
    </g>
    <g transform="translate(30,10)" s:x="30" s:y="10" s:pid="out0" id="port_gen_tristate:1 buffer_instance~data_out">
      <text x="5" y="-4" class="cell_gen_tristate:1 buffer_instance text-2">data_out</text>
    </g>
  </g>
  <g s:type="generic" transform="translate(264,110)" s:width="30" s:height="40" id="cell_gen_tristate:2 buffer_instance">
    <text x="15" y="-4" class="nodelabel text-1 cell_gen_tristate:2 buffer_instance" s:attribute="ref">generic_tristate_buffer_1bit</text>
    <rect width="30" height="40" s:generic="body" class="cell_gen_tristate:2 buffer_instance fill-1"/>
    <g transform="translate(0,10)" s:x="0" s:y="10" s:pid="in0" id="port_gen_tristate:2 buffer_instance~data_in">
      <text x="-3" y="-4" class="inputPortLabel text-2 cell_gen_tristate:2 buffer_instance">data_in</text>
    </g>
    <g transform="translate(0,30)" s:x="0" s:y="10" s:pid="in0" id="port_gen_tristate:2 buffer_instance~enable">
      <text x="-3" y="-4" class="inputPortLabel text-2 cell_gen_tristate:2 buffer_instance">enable</text>
    </g>
    <g transform="translate(30,10)" s:x="30" s:y="10" s:pid="out0" id="port_gen_tristate:2 buffer_instance~data_out">
      <text x="5" y="-4" class="cell_gen_tristate:2 buffer_instance text-2">data_out</text>
    </g>
  </g>
  <g s:type="generic" transform="translate(264,302)" s:width="30" s:height="40" id="cell_gen_tristate:3 buffer_instance">
    <text x="15" y="-4" class="nodelabel text-1 cell_gen_tristate:3 buffer_instance" s:attribute="ref">generic_tristate_buffer_1bit</text>
    <rect width="30" height="40" s:generic="body" class="cell_gen_tristate:3 buffer_instance fill-1"/>
    <g transform="translate(0,10)" s:x="0" s:y="10" s:pid="in0" id="port_gen_tristate:3 buffer_instance~data_in">
      <text x="-3" y="-4" class="inputPortLabel text-2 cell_gen_tristate:3 buffer_instance">data_in</text>
    </g>
    <g transform="translate(0,30)" s:x="0" s:y="10" s:pid="in0" id="port_gen_tristate:3 buffer_instance~enable">
      <text x="-3" y="-4" class="inputPortLabel text-2 cell_gen_tristate:3 buffer_instance">enable</text>
    </g>
    <g transform="translate(30,10)" s:x="30" s:y="10" s:pid="out0" id="port_gen_tristate:3 buffer_instance~data_out">
      <text x="5" y="-4" class="cell_gen_tristate:3 buffer_instance text-2">data_out</text>
    </g>
  </g>
  <g s:type="generic" transform="translate(264,390)" s:width="30" s:height="40" id="cell_gen_tristate:4 buffer_instance">
    <text x="15" y="-4" class="nodelabel text-1 cell_gen_tristate:4 buffer_instance" s:attribute="ref">generic_tristate_buffer_1bit</text>
    <rect width="30" height="40" s:generic="body" class="cell_gen_tristate:4 buffer_instance fill-1"/>
    <g transform="translate(0,10)" s:x="0" s:y="10" s:pid="in0" id="port_gen_tristate:4 buffer_instance~data_in">
      <text x="-3" y="-4" class="inputPortLabel text-2 cell_gen_tristate:4 buffer_instance">data_in</text>
    </g>
    <g transform="translate(0,30)" s:x="0" s:y="10" s:pid="in0" id="port_gen_tristate:4 buffer_instance~enable">
      <text x="-3" y="-4" class="inputPortLabel text-2 cell_gen_tristate:4 buffer_instance">enable</text>
    </g>
    <g transform="translate(30,10)" s:x="30" s:y="10" s:pid="out0" id="port_gen_tristate:4 buffer_instance~data_out">
      <text x="5" y="-4" class="cell_gen_tristate:4 buffer_instance text-2">data_out</text>
    </g>
  </g>
  <g s:type="generic" transform="translate(264,478)" s:width="30" s:height="40" id="cell_gen_tristate:5 buffer_instance">
    <text x="15" y="-4" class="nodelabel text-1 cell_gen_tristate:5 buffer_instance" s:attribute="ref">generic_tristate_buffer_1bit</text>
    <rect width="30" height="40" s:generic="body" class="cell_gen_tristate:5 buffer_instance fill-1"/>
    <g transform="translate(0,10)" s:x="0" s:y="10" s:pid="in0" id="port_gen_tristate:5 buffer_instance~data_in">
      <text x="-3" y="-4" class="inputPortLabel text-2 cell_gen_tristate:5 buffer_instance">data_in</text>
    </g>
    <g transform="translate(0,30)" s:x="0" s:y="10" s:pid="in0" id="port_gen_tristate:5 buffer_instance~enable">
      <text x="-3" y="-4" class="inputPortLabel text-2 cell_gen_tristate:5 buffer_instance">enable</text>
    </g>
    <g transform="translate(30,10)" s:x="30" s:y="10" s:pid="out0" id="port_gen_tristate:5 buffer_instance~data_out">
      <text x="5" y="-4" class="cell_gen_tristate:5 buffer_instance text-2">data_out</text>
    </g>
  </g>
  <g s:type="generic" transform="translate(264,566)" s:width="30" s:height="40" id="cell_gen_tristate:6 buffer_instance">
    <text x="15" y="-4" class="nodelabel text-1 cell_gen_tristate:6 buffer_instance" s:attribute="ref">generic_tristate_buffer_1bit</text>
    <rect width="30" height="40" s:generic="body" class="cell_gen_tristate:6 buffer_instance fill-1"/>
    <g transform="translate(0,10)" s:x="0" s:y="10" s:pid="in0" id="port_gen_tristate:6 buffer_instance~data_in">
      <text x="-3" y="-4" class="inputPortLabel text-2 cell_gen_tristate:6 buffer_instance">data_in</text>
    </g>
    <g transform="translate(0,30)" s:x="0" s:y="10" s:pid="in0" id="port_gen_tristate:6 buffer_instance~enable">
      <text x="-3" y="-4" class="inputPortLabel text-2 cell_gen_tristate:6 buffer_instance">enable</text>
    </g>
    <g transform="translate(30,10)" s:x="30" s:y="10" s:pid="out0" id="port_gen_tristate:6 buffer_instance~data_out">
      <text x="5" y="-4" class="cell_gen_tristate:6 buffer_instance text-2">data_out</text>
    </g>
  </g>
  <g s:type="generic" transform="translate(264,654)" s:width="30" s:height="40" id="cell_gen_tristate:7 buffer_instance">
    <text x="15" y="-4" class="nodelabel text-1 cell_gen_tristate:7 buffer_instance" s:attribute="ref">generic_tristate_buffer_1bit</text>
    <rect width="30" height="40" s:generic="body" class="cell_gen_tristate:7 buffer_instance fill-1"/>
    <g transform="translate(0,10)" s:x="0" s:y="10" s:pid="in0" id="port_gen_tristate:7 buffer_instance~data_in">
      <text x="-3" y="-4" class="inputPortLabel text-2 cell_gen_tristate:7 buffer_instance">data_in</text>
    </g>
    <g transform="translate(0,30)" s:x="0" s:y="10" s:pid="in0" id="port_gen_tristate:7 buffer_instance~enable">
      <text x="-3" y="-4" class="inputPortLabel text-2 cell_gen_tristate:7 buffer_instance">enable</text>
    </g>
    <g transform="translate(30,10)" s:x="30" s:y="10" s:pid="out0" id="port_gen_tristate:7 buffer_instance~data_out">
      <text x="5" y="-4" class="cell_gen_tristate:7 buffer_instance text-2">data_out</text>
    </g>
  </g>
  <g s:type="generic" transform="translate(264,742)" s:width="30" s:height="40" id="cell_gen_tristate:8 buffer_instance">
    <text x="15" y="-4" class="nodelabel text-1 cell_gen_tristate:8 buffer_instance" s:attribute="ref">generic_tristate_buffer_1bit</text>
    <rect width="30" height="40" s:generic="body" class="cell_gen_tristate:8 buffer_instance fill-1"/>
    <g transform="translate(0,10)" s:x="0" s:y="10" s:pid="in0" id="port_gen_tristate:8 buffer_instance~data_in">
      <text x="-3" y="-4" class="inputPortLabel text-2 cell_gen_tristate:8 buffer_instance">data_in</text>
    </g>
    <g transform="translate(0,30)" s:x="0" s:y="10" s:pid="in0" id="port_gen_tristate:8 buffer_instance~enable">
      <text x="-3" y="-4" class="inputPortLabel text-2 cell_gen_tristate:8 buffer_instance">enable</text>
    </g>
    <g transform="translate(30,10)" s:x="30" s:y="10" s:pid="out0" id="port_gen_tristate:8 buffer_instance~data_out">
      <text x="5" y="-4" class="cell_gen_tristate:8 buffer_instance text-2">data_out</text>
    </g>
  </g>
  <g s:type="inputExt" transform="translate(12,100.5)" s:width="30" s:height="20" id="cell_data_in">
    <text x="15" y="-4" class="nodelabel text-1 cell_data_in" s:attribute="ref">data_in</text>
    <s:alias val="$_inputExt_"/>
    <path d="M0,0 L0,20 L15,20 L30,10 L15,0 Z" class="cell_data_in fill-4"/>
    <g s:x="30" s:y="10" s:pid="Y"/>
  </g>
  <g s:type="inputExt" transform="translate(12,292.5)" s:width="30" s:height="20" id="cell_enable">
    <text x="15" y="-4" class="nodelabel text-1 cell_enable" s:attribute="ref">enable</text>
    <s:alias val="$_inputExt_"/>
    <path d="M0,0 L0,20 L15,20 L30,10 L15,0 Z" class="cell_enable fill-4"/>
    <g s:x="30" s:y="10" s:pid="Y"/>
  </g>
  <g s:type="outputExt" transform="translate(527,340.5)" s:width="30" s:height="20" id="cell_data_out">
    <text x="15" y="-4" class="nodelabel text-1 cell_data_out" s:attribute="ref">data_out</text>
    <s:alias val="$_outputExt_"/>
    <path d="M30,0 L30,20 L15,20 L0,10 L15,0 Z" class="cell_data_out fill-4"/>
    <g s:x="0" s:y="10" s:pid="A"/>
  </g>
  <g s:type="join" transform="translate(484,330)" s:width="4" s:height="40" id="cell_$join$,18,19,20,21,22,23,24,25,">
    <rect width="5" height="160" class="splitjoinBody" s:generic="body"/>
    <s:alias val="$_join_"/>
    <g s:x="5" s:y="20" s:pid="out"/>
    <g transform="translate(0,10)" s:x="0" s:y="10" s:pid="in0">
      <text x="-3" y="-4" class="inputPortLabel text-2">0</text>
    </g>
    <g transform="translate(0,30)" s:x="0" s:y="10" s:pid="in0">
      <text x="-3" y="-4" class="inputPortLabel text-2">1</text>
    </g>
    <g transform="translate(0,50)" s:x="0" s:y="10" s:pid="in0">
      <text x="-3" y="-4" class="inputPortLabel text-2">2</text>
    </g>
    <g transform="translate(0,70)" s:x="0" s:y="10" s:pid="in0">
      <text x="-3" y="-4" class="inputPortLabel text-2">3</text>
    </g>
    <g transform="translate(0,90)" s:x="0" s:y="10" s:pid="in0">
      <text x="-3" y="-4" class="inputPortLabel text-2">4</text>
    </g>
    <g transform="translate(0,110)" s:x="0" s:y="10" s:pid="in0">
      <text x="-3" y="-4" class="inputPortLabel text-2">5</text>
    </g>
    <g transform="translate(0,130)" s:x="0" s:y="10" s:pid="in0">
      <text x="-3" y="-4" class="inputPortLabel text-2">6</text>
    </g>
    <g transform="translate(0,150)" s:x="0" s:y="10" s:pid="in0">
      <text x="-3" y="-4" class="inputPortLabel text-2">7</text>
    </g>
  </g>
  <g s:type="split" transform="translate(89,90)" s:width="5" s:height="40" id="cell_$split$,2,3,4,5,6,7,8,9,">
    <rect width="5" height="160" class="splitjoinBody" s:generic="body"/>
    <s:alias val="$_split_"/>
    <g s:x="0" s:y="20" s:pid="in"/>
    <g transform="translate(4,10)" s:x="4" s:y="10" s:pid="out0">
      <text x="5" y="-4" class="text-2">0</text>
    </g>
    <g transform="translate(4,30)" s:x="4" s:y="10" s:pid="out0">
      <text x="5" y="-4" class="text-2">1</text>
    </g>
    <g transform="translate(4,50)" s:x="4" s:y="10" s:pid="out0">
      <text x="5" y="-4" class="text-2">2</text>
    </g>
    <g transform="translate(4,70)" s:x="4" s:y="10" s:pid="out0">
      <text x="5" y="-4" class="text-2">3</text>
    </g>
    <g transform="translate(4,90)" s:x="4" s:y="10" s:pid="out0">
      <text x="5" y="-4" class="text-2">4</text>
    </g>
    <g transform="translate(4,110)" s:x="4" s:y="10" s:pid="out0">
      <text x="5" y="-4" class="text-2">5</text>
    </g>
    <g transform="translate(4,130)" s:x="4" s:y="10" s:pid="out0">
      <text x="5" y="-4" class="text-2">6</text>
    </g>
    <g transform="translate(4,150)" s:x="4" s:y="10" s:pid="out0">
      <text x="5" y="-4" class="text-2">7</text>
    </g>
  </g>
  <g s:type="split" transform="translate(89,282)" s:width="5" s:height="40" id="cell_$split$,10,11,12,13,14,15,16,17,">
    <rect width="5" height="160" class="splitjoinBody" s:generic="body"/>
    <s:alias val="$_split_"/>
    <g s:x="0" s:y="20" s:pid="in"/>
    <g transform="translate(4,10)" s:x="4" s:y="10" s:pid="out0">
      <text x="5" y="-4" class="text-2">0</text>
    </g>
    <g transform="translate(4,30)" s:x="4" s:y="10" s:pid="out0">
      <text x="5" y="-4" class="text-2">1</text>
    </g>
    <g transform="translate(4,50)" s:x="4" s:y="10" s:pid="out0">
      <text x="5" y="-4" class="text-2">2</text>
    </g>
    <g transform="translate(4,70)" s:x="4" s:y="10" s:pid="out0">
      <text x="5" y="-4" class="text-2">3</text>
    </g>
    <g transform="translate(4,90)" s:x="4" s:y="10" s:pid="out0">
      <text x="5" y="-4" class="text-2">4</text>
    </g>
    <g transform="translate(4,110)" s:x="4" s:y="10" s:pid="out0">
      <text x="5" y="-4" class="text-2">5</text>
    </g>
    <g transform="translate(4,130)" s:x="4" s:y="10" s:pid="out0">
      <text x="5" y="-4" class="text-2">6</text>
    </g>
    <g transform="translate(4,150)" s:x="4" s:y="10" s:pid="out0">
      <text x="5" y="-4" class="text-2">7</text>
    </g>
  </g>
  <line x1="93.5" x2="93.5" y1="100" y2="32.5" class="net_2"/>
  <line x1="93.5" x2="264" y1="32.5" y2="32.5" class="net_2"/>
  <line x1="93.5" x2="93.5" y1="292" y2="270" class="net_10"/>
  <line x1="93.5" x2="121" y1="270" y2="270" class="net_10"/>
  <line x1="121" x2="121" y1="270" y2="52.5" class="net_10"/>
  <line x1="121" x2="264" y1="52.5" y2="52.5" class="net_10"/>
  <line x1="94" x2="264" y1="120.5" y2="120.5" class="net_3"/>
  <line x1="94" x2="201" y1="312.5" y2="312.5" class="net_11"/>
  <line x1="201" x2="201" y1="312.5" y2="140.5" class="net_11"/>
  <line x1="201" x2="264" y1="140.5" y2="140.5" class="net_11"/>
  <line x1="94" x2="211" y1="140.5" y2="140.5" class="net_4"/>
  <line x1="211" x2="211" y1="140.5" y2="312.5" class="net_4"/>
  <line x1="211" x2="264" y1="312.5" y2="312.5" class="net_4"/>
  <line x1="94" x2="264" y1="332.5" y2="332.5" class="net_12"/>
  <line x1="94" x2="191" y1="160.5" y2="160.5" class="net_5"/>
  <line x1="191" x2="191" y1="160.5" y2="400.5" class="net_5"/>
  <line x1="191" x2="264" y1="400.5" y2="400.5" class="net_5"/>
  <line x1="94" x2="171" y1="352.5" y2="352.5" class="net_13"/>
  <line x1="171" x2="171" y1="352.5" y2="420.5" class="net_13"/>
  <line x1="171" x2="264" y1="420.5" y2="420.5" class="net_13"/>
  <line x1="94" x2="181" y1="180.5" y2="180.5" class="net_6"/>
  <line x1="181" x2="181" y1="180.5" y2="488.5" class="net_6"/>
  <line x1="181" x2="264" y1="488.5" y2="488.5" class="net_6"/>
  <line x1="94" x2="151" y1="372.5" y2="372.5" class="net_14"/>
  <line x1="151" x2="151" y1="372.5" y2="508.5" class="net_14"/>
  <line x1="151" x2="264" y1="508.5" y2="508.5" class="net_14"/>
  <line x1="94" x2="161" y1="200.5" y2="200.5" class="net_7"/>
  <line x1="161" x2="161" y1="200.5" y2="576.5" class="net_7"/>
  <line x1="161" x2="264" y1="576.5" y2="576.5" class="net_7"/>
  <line x1="94" x2="131" y1="392.5" y2="392.5" class="net_15"/>
  <line x1="131" x2="131" y1="392.5" y2="596.5" class="net_15"/>
  <line x1="131" x2="264" y1="596.5" y2="596.5" class="net_15"/>
  <line x1="94" x2="141" y1="220.5" y2="220.5" class="net_8"/>
  <line x1="141" x2="141" y1="220.5" y2="664.5" class="net_8"/>
  <line x1="141" x2="264" y1="664.5" y2="664.5" class="net_8"/>
  <line x1="94" x2="121" y1="412.5" y2="412.5" class="net_16"/>
  <line x1="121" x2="121" y1="412.5" y2="684.5" class="net_16"/>
  <line x1="121" x2="264" y1="684.5" y2="684.5" class="net_16"/>
  <line x1="93.5" x2="93.5" y1="241" y2="260" class="net_9"/>
  <line x1="93.5" x2="111" y1="260" y2="260" class="net_9"/>
  <line x1="111" x2="111" y1="260" y2="752.5" class="net_9"/>
  <line x1="111" x2="264" y1="752.5" y2="752.5" class="net_9"/>
  <line x1="93.5" x2="93.5" y1="433" y2="772.5" class="net_17"/>
  <line x1="93.5" x2="264" y1="772.5" y2="772.5" class="net_17"/>
  <line x1="490" x2="527" y1="350.5" y2="350.5" class="net_18,19,20,21,22,23,24,25"/>
  <line x1="295" x2="484.5" y1="32.5" y2="32.5" class="net_18"/>
  <line x1="484.5" x2="484.5" y1="32.5" y2="340" class="net_18"/>
  <line x1="295" x2="464" y1="120.5" y2="120.5" class="net_19"/>
  <line x1="464" x2="464" y1="120.5" y2="360.5" class="net_19"/>
  <line x1="464" x2="484" y1="360.5" y2="360.5" class="net_19"/>
  <line x1="295" x2="454" y1="312.5" y2="312.5" class="net_20"/>
  <line x1="454" x2="454" y1="312.5" y2="380.5" class="net_20"/>
  <line x1="454" x2="484" y1="380.5" y2="380.5" class="net_20"/>
  <line x1="295" x2="484" y1="400.5" y2="400.5" class="net_21"/>
  <line x1="295" x2="454" y1="488.5" y2="488.5" class="net_22"/>
  <line x1="454" x2="454" y1="488.5" y2="420.5" class="net_22"/>
  <line x1="454" x2="484" y1="420.5" y2="420.5" class="net_22"/>
  <line x1="295" x2="464" y1="576.5" y2="576.5" class="net_23"/>
  <line x1="464" x2="464" y1="576.5" y2="440.5" class="net_23"/>
  <line x1="464" x2="484" y1="440.5" y2="440.5" class="net_23"/>
  <line x1="295" x2="474" y1="664.5" y2="664.5" class="net_24"/>
  <line x1="474" x2="474" y1="664.5" y2="460.5" class="net_24"/>
  <line x1="474" x2="484" y1="460.5" y2="460.5" class="net_24"/>
  <line x1="295" x2="484.5" y1="752.5" y2="752.5" class="net_25"/>
  <line x1="484.5" x2="484.5" y1="752.5" y2="481" class="net_25"/>
  <line x1="42" x2="89" y1="110.5" y2="110.5" class="net_2,3,4,5,6,7,8,9"/>
  <line x1="42" x2="89" y1="302.5" y2="302.5" class="net_10,11,12,13,14,15,16,17"/>
</svg>
